<?xml version="1.0" encoding="UTF-8"?>
<svg version="1.1" xmlns="http://www.w3.org/2000/svg" width="1000" height="765">
<path d="M0 0 C0.60457031 0.46148437 1.20914063 0.92296875 1.83203125 1.3984375 C21.03410866 16.49664085 33.24799472 42.99129558 36.72946167 66.66888428 C37.51109517 73.40389345 37.4400402 80.19655215 37.39111328 86.96728516 C37.37480554 89.65707451 37.39117666 92.34540775 37.41015625 95.03515625 C37.40817715 96.76562828 37.40434041 98.49609941 37.3984375 100.2265625 C37.40451019 101.02035309 37.41058289 101.81414368 37.4168396 102.63198853 C37.35594511 107.45341859 36.78359813 110.89037205 34 115 C30.3995232 117.60773828 27.89763428 118.37524877 23.47875977 118.37231445 C22.39736221 118.37854324 21.31596466 118.38477203 20.20179749 118.39118958 C19.04336838 118.38197983 17.88493927 118.37277008 16.69140625 118.36328125 C14.89218971 118.36402901 14.89218971 118.36402901 13.05662537 118.36479187 C10.52235252 118.36245348 7.98807726 118.35273887 5.45385742 118.33618164 C1.58035439 118.31260866 -2.29245916 118.3156206 -6.16601562 118.32226562 C-8.63021243 118.31668796 -11.09440634 118.30957753 -13.55859375 118.30078125 C-15.29320107 118.30214836 -15.29320107 118.30214836 -17.06285095 118.30354309 C-27.37932393 118.21287251 -27.37932393 118.21287251 -32 116 C-36.65011161 111.09853101 -37.12238801 107.40690522 -37.2109375 100.8046875 C-37.23903092 99.35155172 -37.26769551 97.89842688 -37.296875 96.4453125 C-37.33790811 94.16797488 -37.37481538 91.89083617 -37.40136719 89.61328125 C-37.55638028 77.36190142 -38.28559944 67.32421189 -47 58 C-55.40840798 50.30534922 -62.97523456 48.3718222 -74.31640625 48.6640625 C-84.43265274 49.58664702 -91.27762405 54.55254146 -98 62 C-103.11901125 69.32059129 -103.14986087 77.48384156 -103.13371277 86.13327026 C-103.1371111 87.48028886 -103.1371111 87.48028886 -103.14057809 88.85451996 C-103.14688882 91.85208252 -103.14609061 94.84959952 -103.14526367 97.84716797 C-103.14825696 100.00105853 -103.15165988 102.15494856 -103.15544128 104.30883789 C-103.16426753 110.1518194 -103.1666188 115.99478627 -103.16725707 121.8377738 C-103.16796828 125.48976258 -103.17010393 129.14174765 -103.17275429 132.7937355 C-103.18200268 145.53843675 -103.18608975 158.28312754 -103.18530273 171.02783203 C-103.18470186 182.90150024 -103.19525694 194.77512303 -103.2110464 206.64877975 C-103.22412698 216.84940392 -103.22948642 227.05001326 -103.22884732 237.25064576 C-103.22859252 243.34020785 -103.23143425 249.42972956 -103.24202538 255.51928329 C-103.25171519 261.24680323 -103.25177942 266.97424423 -103.24450874 272.70176697 C-103.24346405 274.80076844 -103.24581891 276.89977484 -103.2518692 278.99876785 C-103.25960833 281.8701917 -103.25493159 284.74134427 -103.24723816 287.61276245 C-103.25238172 288.43778067 -103.25752529 289.26279888 -103.26282471 290.11281765 C-103.19445819 301.7076876 -100.2314719 310.07862935 -91.9375 318.3125 C-83.18753811 325.52045271 -71.92893379 325.55974643 -61.02709961 325.5559082 C-58.93485442 325.56250835 -56.84727867 325.61730328 -54.75585938 325.67382812 C-45.72466621 325.78662965 -39.43226251 324.20046272 -32 319 C-30.74364746 318.13773804 -30.74364746 318.13773804 -29.46191406 317.25805664 C-20.59593943 310.96282321 -16.05300107 303.66438898 -12.34130859 293.60864258 C-9.79456582 286.96777965 -6.06146426 279.94163798 0.58203125 276.765625 C3 276 3 276 5.625 275.5625 C8.0630675 275.22966262 8.0630675 275.22966262 9.328125 273.46484375 C11 272 11 272 13.3828125 271.8125 C14.28773438 271.874375 15.19265625 271.93625 16.125 272 C21.60036421 272.1674646 26.00741774 271.24085669 31 269 C31.33 268.67 31.66 268.34 32 268 C33.66617115 267.95936168 35.33388095 267.957279 37 268 C37.07015071 283.65552065 37.12301781 299.31099871 37.15543652 314.96663761 C37.17089068 322.23619409 37.19195233 329.50565278 37.22631836 336.77514648 C37.25626529 343.11289599 37.27558555 349.45057466 37.28226548 355.78839296 C37.28616882 359.14274552 37.2953116 362.49689546 37.31719017 365.85118294 C37.33896962 369.60021093 37.34196661 373.3488193 37.34057617 377.09790039 C37.351362 378.20417282 37.36214783 379.31044525 37.3732605 380.45024109 C37.3494504 386.38392772 37.15249883 390.88767632 34 396 C29.01361605 400.70529953 24.28656404 400.56780298 17.7980957 400.50170898 C16.78410706 400.50711197 15.77011841 400.51251495 14.72540283 400.51808167 C11.37523101 400.53057812 8.02591795 400.51405584 4.67578125 400.49609375 C2.33090673 400.49624887 -0.01396805 400.49774003 -2.35884094 400.50050354 C-7.28076479 400.50188849 -12.20239764 400.48932528 -17.12426758 400.46655273 C-23.38205491 400.43837178 -29.63935143 400.4408487 -35.89717388 400.45364285 C-40.74732012 400.4606624 -45.59735658 400.45273647 -50.44748878 400.44038582 C-52.75117379 400.43591752 -55.05487081 400.43549333 -57.35855675 400.43945122 C-74.26241774 400.45488013 -91.75495322 400.25776912 -107.6875 393.875 C-108.4616626 393.5749707 -109.2358252 393.27494141 -110.03344727 392.96582031 C-122.54175496 387.94868862 -133.14500787 381.68030667 -142.7421875 372.1875 C-144.79902217 369.97499535 -144.79902217 369.97499535 -147 369 C-147 368.34 -147 367.68 -147 367 C-147.99 366.67 -148.98 366.34 -150 366 C-151.67565506 364.16064862 -153.18784073 362.35012596 -154.6875 360.375 C-155.12739258 359.79596924 -155.56728516 359.21693848 -156.02050781 358.62036133 C-173.02022834 335.61911257 -177.47092766 310.48949979 -177.38818359 282.48217773 C-177.39225668 280.14950313 -177.39760267 277.81683045 -177.40411377 275.48416138 C-177.41770465 269.19293123 -177.41252307 262.9018499 -177.40297651 256.6106174 C-177.39611425 250.67358035 -177.4013736 244.73656105 -177.4057581 238.79952348 C-177.41428243 226.32583596 -177.4045242 213.85221493 -177.388357 201.37853832 C-177.37495336 190.70715963 -177.37728803 180.03587888 -177.39111328 169.36450195 C-177.4072162 156.92947773 -177.41346202 144.49451154 -177.40427649 132.05947834 C-177.39961754 125.49253908 -177.39892608 118.92566707 -177.40888596 112.35873222 C-177.41759872 106.18370908 -177.4114553 100.00886958 -177.39420319 93.83386612 C-177.39026146 91.57773836 -177.39133231 89.32159494 -177.39799118 87.06547356 C-177.4737473 58.77406088 -171.03355382 34.41404473 -153 12 C-152.45859375 11.29230469 -151.9171875 10.58460938 -151.359375 9.85546875 C-113.52584762 -37.05428364 -44.07454238 -34.96265383 0 0 Z " fill="#000000" transform="translate(502,150)"/>
<path d="M0 0 C0.99 0.66 1.98 1.32 3 2 C3.37604749 4.6372906 3.37604749 4.6372906 3.37752342 8.06464577 C3.38534666 9.36648422 3.39316991 10.66832267 3.40123022 12.00961077 C3.39474295 13.4681292 3.38797293 14.9266464 3.38095093 16.38516235 C3.38440441 17.92386564 3.38916688 19.46256647 3.39513266 21.00126207 C3.40771577 25.24555375 3.40143921 29.4896444 3.39217401 33.73393703 C3.38541325 38.30534561 3.39585014 42.87671852 3.40411377 47.44812012 C3.41748714 56.4115227 3.41455682 65.37485013 3.40587585 74.33825572 C3.3991113 81.62361573 3.39817725 88.90895462 3.4014473 96.19431686 C3.401907 97.2297212 3.40236669 98.26512555 3.40284032 99.33190577 C3.40379947 101.43513486 3.40477211 103.53836395 3.4057581 105.64159302 C3.4143232 125.38809217 3.40446165 145.13454962 3.388357 164.88104193 C3.37496469 181.82615175 3.37727077 198.7711999 3.39111328 215.71630859 C3.40716983 235.38098523 3.41348658 255.04562521 3.40427649 274.71030748 C3.40332083 276.80780116 3.40237772 278.90529485 3.4014473 281.00278854 C3.40098447 282.03485011 3.40052164 283.06691168 3.40004479 284.13024784 C3.39745424 291.40417914 3.40182756 298.67808722 3.40888596 305.95201492 C3.41730251 314.82087864 3.41501802 323.6896627 3.39904372 332.55851729 C3.39116129 337.08401232 3.3880688 341.60937459 3.39799118 346.13486862 C3.40693985 350.27901407 3.40200234 354.42290388 3.38605852 358.56702618 C3.3827113 360.06507742 3.38440349 361.56315031 3.39168589 363.06118758 C3.4319328 372.02931687 3.17501149 378.87113528 -1.625 386.625 C-10.09782733 395.09782733 -20.52897252 399.13207433 -32.4375 399.5 C-44.31109093 399.13503307 -54.02130443 395.90542842 -62.48828125 387.52734375 C-68.98973568 380.33546938 -69.44986454 373.51592258 -69.45166016 364.2565918 C-69.46334229 363.0914505 -69.47502441 361.9263092 -69.48706055 360.7258606 C-69.5205871 356.88356241 -69.53137738 353.04165023 -69.5390625 349.19921875 C-69.54816549 347.19784371 -69.55727278 345.19646863 -69.56695783 343.19509631 C-69.59651195 336.90486496 -69.608343 330.61475744 -69.61083984 324.32446289 C-69.61387264 317.85700028 -69.65430563 311.39049484 -69.71198809 304.92330998 C-69.75991279 299.35189677 -69.78057206 293.78079803 -69.78063047 288.20918018 C-69.78116613 284.88969978 -69.7958615 281.57136455 -69.83180618 278.2520504 C-69.86860989 274.54440303 -69.86078919 270.83932098 -69.84228516 267.1315918 C-69.86273895 266.04710251 -69.88319275 264.96261322 -69.90426636 263.84526062 C-69.80683034 256.71288757 -68.1215318 252.67742209 -63.64201927 247.11500263 C-59.75420545 242.10730473 -59.31338044 236.0814875 -60 230 C-62.77792053 226.45043488 -64.94284688 225.02857656 -69 223 C-69.33 151.06 -69.66 79.12 -70 5 C-64.92794037 3.98558807 -62.23976501 4.56828393 -57.5 5.9375 C-38.81159873 10.79422156 -20.18774189 8.51544248 -2.64453125 0.79296875 C-1.77183594 0.53128906 -0.89914062 0.26960937 0 0 Z " fill="#000000" transform="translate(619,148)"/>
<path d="M0 0 C0.85740784 -0.0049649 1.71481567 -0.00992981 2.59820557 -0.01504517 C5.43225917 -0.02963957 8.2662568 -0.03646428 11.1003418 -0.04199219 C13.07325746 -0.04774589 15.04617311 -0.0535036 17.01908875 -0.05926514 C21.15579488 -0.06976739 25.29248163 -0.07561513 29.42919922 -0.07910156 C34.72188302 -0.08458453 40.01430933 -0.10861168 45.30691242 -0.13707352 C49.38277427 -0.15572531 53.45857441 -0.16090685 57.53447533 -0.16243744 C59.48525589 -0.16545876 61.4360355 -0.1734697 63.38677406 -0.18662262 C66.12002614 -0.20373615 68.85265313 -0.20178993 71.5859375 -0.1953125 C72.78708443 -0.20913467 72.78708443 -0.20913467 74.01249695 -0.22323608 C79.22428357 -0.18467468 82.87572211 0.67267962 87.48706055 3.16113281 C91.77257677 9.45057285 90.93713761 16.94267849 90.9206543 24.30175781 C90.92522074 25.6746242 90.93052769 27.0474883 90.9365387 28.42034912 C90.94543653 31.28488512 90.94308155 34.14914175 90.93310547 37.01367188 C90.92156547 40.68481972 90.94191911 44.35501282 90.97102261 48.02603531 C90.98935168 50.85534779 90.9890998 53.68442939 90.98338509 56.51378632 C90.98315731 58.52519331 91.00006255 60.53657857 91.01719666 62.5479126 C91.00312523 64.37561188 91.00312523 64.37561188 90.98876953 66.24023438 C90.98860336 67.31388245 90.98843719 68.38753052 90.98826599 69.49371338 C90.48706055 72.16113281 90.48706055 72.16113281 88.58119202 73.97137451 C86.53915297 75.13153706 84.53895462 76.09403908 82.36206055 76.97363281 C77.90651159 78.88104964 73.86081053 81.23799675 69.7487793 83.79394531 C67.48706055 85.16113281 67.48706055 85.16113281 65.3190918 86.09082031 C62.98574011 87.45401512 62.57141715 88.71909005 61.48706055 91.16113281 C60.44955544 92.51849053 59.40762853 93.87247612 58.36206055 95.22363281 C55.14025247 99.89795868 55.25152429 103.20273921 55.60424805 108.72363281 C55.48706055 111.16113281 55.48706055 111.16113281 53.04956055 113.91113281 C52.20393555 114.65363281 51.35831055 115.39613281 50.48706055 116.16113281 C50.35557617 117.24136719 50.2240918 118.32160156 50.08862305 119.43457031 C49.38689414 123.7816442 48.01070266 125.61201027 45.29956055 129.03613281 C41.5169841 134.05843359 39.29696434 138.86090344 37.42456055 144.84863281 C35.08378467 152.21892469 32.01608027 157.60999702 26.48706055 163.16113281 C25.9250293 163.72574219 25.36299805 164.29035156 24.78393555 164.87207031 C21.75695534 167.63915828 20.73091515 168.16113281 16.48706055 168.16113281 C15.18048706 164.24141236 15.40244331 160.54820376 15.46533203 156.46704102 C15.47493958 155.57902802 15.48454712 154.69101501 15.4944458 153.77609253 C15.52745327 150.83795283 15.56777905 147.899961 15.6081543 144.96191406 C15.6324537 142.92596459 15.65629735 140.89000963 15.67970276 138.85404968 C15.74256155 133.49296829 15.81162319 128.13198392 15.88195801 122.77099609 C15.9526252 117.30147727 16.01745183 111.83188961 16.08276367 106.36230469 C16.21179917 95.62850507 16.34738483 84.89479887 16.48706055 74.16113281 C15.72562744 74.17684326 14.96419434 74.19255371 14.1796875 74.20874023 C10.71972115 74.27121734 7.25987365 74.31016454 3.79956055 74.34863281 C2.60137695 74.37376953 1.40319336 74.39890625 0.16870117 74.42480469 C-0.98823242 74.43447266 -2.14516602 74.44414062 -3.3371582 74.45410156 C-4.40023193 74.46981201 -5.46330566 74.48552246 -6.55859375 74.50170898 C-10.79789191 74.01300384 -13.42814454 72.36215576 -16.26293945 69.22363281 C-18.47684084 65.57069553 -18.64262042 62.14975048 -18.67407227 57.93701172 C-18.68367981 56.89558014 -18.69328735 55.85414856 -18.70318604 54.78115845 C-18.70743591 53.66131561 -18.71168579 52.54147278 -18.71606445 51.38769531 C-18.72176453 50.23119476 -18.7274646 49.07469421 -18.7333374 47.88314819 C-18.74278064 45.43708205 -18.7493187 42.99100321 -18.75317383 40.54492188 C-18.76288422 36.80739128 -18.79391682 33.0704095 -18.82543945 29.33300781 C-18.83196929 26.95540691 -18.83721984 24.57780208 -18.84106445 22.20019531 C-18.85341125 21.08440094 -18.86575806 19.96860657 -18.878479 18.81900024 C-18.85955013 12.21060104 -18.3030504 7.67909878 -14.07543945 2.34863281 C-10.08210399 -0.68630214 -4.7816457 0.00662489 0 0 Z " fill="#000000" transform="translate(448.512939453125,299.8388671875)"/>
<path d="M0 0 C4.1711175 1.51267913 5.54583705 4.01931844 7.7578125 7.7578125 C8.10259644 8.33349472 8.44738037 8.90917694 8.8026123 9.50230408 C9.91939886 11.37115875 11.02201688 13.24797218 12.125 15.125 C12.89124937 16.41142115 13.65866886 17.69714602 14.42724609 18.98217773 C15.93930219 21.51099856 17.44753475 24.04203211 18.953125 26.57470703 C21.46000261 30.76978013 24.02300628 34.92595696 26.625 39.0625 C27.01333008 39.68423096 27.40166016 40.30596191 27.80175781 40.9465332 C29.50324756 43.66231556 31.23469314 46.35113005 33.015625 49.015625 C39.56759801 58.87111381 43.47623784 67.97920613 42 80 C40.31158484 88.17648243 37.76866675 94.90725085 32 101 C31.37480469 101.68835938 30.74960937 102.37671875 30.10546875 103.0859375 C22.50300635 110.67429515 12.9364745 114.19755261 2.25 114.5 C-9.67564355 113.95069763 -20.02215466 109.50725243 -28.3125 100.8125 C-35.0250824 92.78185993 -38.50197985 83.36598907 -38.33203125 72.921875 C-37.26969156 63.57328577 -32.93534479 55.38388272 -28.00878906 47.53393555 C-23.13787762 39.75799992 -18.7994306 31.68097792 -14.40478516 23.63012695 C-11.23023051 17.85581521 -7.97675452 12.23559171 -4.23852539 6.80639648 C-2.72322186 4.59631747 -1.3452688 2.31685182 0 0 Z " fill="#D92E46" transform="translate(583,31)"/>
<path d="M0 0 C1.37890625 1.37109375 1.37890625 1.37109375 3.25390625 3.74609375 C3.91390625 1.76609375 4.57390625 -0.21390625 5.25390625 -2.25390625 C9.06639051 -2.28277861 12.87884695 -2.30066117 16.69140625 -2.31640625 C17.78001953 -2.32478516 18.86863281 -2.33316406 19.99023438 -2.34179688 C21.02470703 -2.34501953 22.05917969 -2.34824219 23.125 -2.3515625 C24.0833374 -2.35679932 25.0416748 -2.36203613 26.02905273 -2.36743164 C28.25390625 -2.25390625 28.25390625 -2.25390625 29.25390625 -1.25390625 C29.36510753 1.52345559 29.41130449 4.27617731 29.41503906 7.05444336 C29.42248642 8.36193039 29.42248642 8.36193039 29.43008423 9.6958313 C29.4447569 12.59670794 29.45151931 15.49752975 29.45703125 18.3984375 C29.46278227 20.41329449 29.46854001 22.42815147 29.4743042 24.44300842 C29.48483125 28.67921199 29.49066151 32.91539651 29.49414062 37.15161133 C29.499603 42.56178958 29.52357525 47.97171329 29.55211258 53.3818121 C29.57081153 57.55044771 29.5759486 61.71902322 29.5774765 65.88769722 C29.58049152 67.88065533 29.58848089 69.87361267 29.60166168 71.86652946 C29.75712799 97.19921662 29.75712799 97.19921662 21.27734375 106.0546875 C11.99348462 113.81513345 -0.29004446 113.21442281 -11.74609375 112.74609375 C-19.02246924 111.97553924 -26.4426405 110.049547 -31.74609375 104.74609375 C-31.36316964 101.28476016 -29.66668513 98.52898075 -27.93359375 95.55859375 C-27.18142578 94.23794922 -27.18142578 94.23794922 -26.4140625 92.890625 C-24.74609375 90.74609375 -24.74609375 90.74609375 -22.734375 89.85546875 C-20.74609375 89.74609375 -20.74609375 89.74609375 -17.74609375 91.18359375 C-12.74392969 93.53819158 -7.15004645 93.52353123 -1.74609375 92.74609375 C0.60876472 91.57315634 0.60876472 91.57315634 2.25390625 89.74609375 C3.06705536 86.14143627 3.06705536 86.14143627 3.25390625 82.74609375 C2.49078125 83.38546875 1.72765625 84.02484375 0.94140625 84.68359375 C-4.17536649 88.61041934 -9.54277038 88.21847326 -15.74609375 87.74609375 C-21.07168308 86.03788585 -24.83809127 82.47597731 -27.74609375 77.74609375 C-30.15018166 71.2879451 -30.06885117 65.03484709 -30.08203125 58.19921875 C-30.08868805 56.99223328 -30.09534485 55.7852478 -30.10220337 54.54168701 C-30.1123054 51.99330157 -30.11702115 49.44488981 -30.11669922 46.89648438 C-30.12106345 43.02298743 -30.15738731 39.15063873 -30.1953125 35.27734375 C-30.20118311 32.79297262 -30.20515087 30.30859611 -30.20703125 27.82421875 C-30.22140228 26.67802063 -30.23577332 25.53182251 -30.25057983 24.35089111 C-30.20673172 16.52841683 -29.33879129 8.46398093 -24.4402771 2.03131104 C-18.02039325 -3.95974851 -7.29622763 -5.23957286 0 0 Z M-2.74609375 16.74609375 C-6.3176266 21.38772891 -6.16970607 25.42423979 -6.109375 31.02734375 C-6.1098735 31.91844849 -6.11037201 32.80955322 -6.11088562 33.72766113 C-6.1085507 35.60703772 -6.09885655 37.48641776 -6.08227539 39.36572266 C-6.05867437 42.23628819 -6.06172007 45.10592449 -6.06835938 47.9765625 C-6.06278233 49.8059951 -6.05567228 51.6354238 -6.046875 53.46484375 C-6.04778641 54.320177 -6.04869781 55.17551025 -6.04963684 56.0567627 C-5.99820662 60.3965712 -5.76600038 63.79373103 -3.74609375 67.74609375 C-0.82975246 67.99630945 -0.82975246 67.99630945 2.25390625 67.74609375 C4.311462 64.65976012 4.50524707 64.00979092 4.51269531 60.52172852 C4.51899963 59.67397354 4.52530396 58.82621857 4.53179932 57.95277405 C4.52775085 57.04023361 4.52370239 56.12769318 4.51953125 55.1875 C4.5214447 54.24680161 4.52335815 53.30610321 4.52532959 52.3368988 C4.52669068 50.34723646 4.52299952 48.35756521 4.51464844 46.36791992 C4.50395983 43.32385255 4.51454018 40.28037696 4.52734375 37.23632812 C4.52602191 35.30338411 4.523459 33.37044047 4.51953125 31.4375 C4.52357971 30.5269838 4.52762817 29.61646759 4.53179932 28.67835999 C4.525495 27.82745285 4.51919067 26.97654572 4.51269531 26.09985352 C4.51110413 25.3538942 4.50951294 24.60793488 4.50787354 23.83937073 C4.21183886 21.39936132 3.58728294 19.80764498 2.25390625 17.74609375 C-0.30129296 16.93438147 -0.30129296 16.93438147 -2.74609375 16.74609375 Z " fill="#DA2E46" transform="translate(708.74609375,588.25390625)"/>
<path d="M0 0 C8.25 0 16.5 0 25 0 C25 38.61 25 77.22 25 117 C16.75 117 8.5 117 0 117 C-0.33 115.68 -0.66 114.36 -1 113 C-1.804375 113.804375 -2.60875 114.60875 -3.4375 115.4375 C-7.34158624 118.67100201 -11.02368531 119.14362878 -16 119 C-21.93834251 118.38345078 -25.8085447 116.38640671 -30 112 C-33.18014514 105.85903007 -34.11926928 100.45364222 -34.16113281 93.60839844 C-34.17074036 92.33647644 -34.1803479 91.06455444 -34.19024658 89.75408936 C-34.19509586 88.37251974 -34.19937437 86.99094803 -34.203125 85.609375 C-34.20595238 84.90807716 -34.20877975 84.20677933 -34.21169281 83.48423004 C-34.22665078 79.77154671 -34.23590112 76.05890187 -34.24023438 72.34619141 C-34.24570814 68.53229202 -34.26972242 64.71875159 -34.29820633 60.90496445 C-34.3169335 57.95364387 -34.32204367 55.00240796 -34.32357025 52.05103302 C-34.32657559 50.64616183 -34.33453153 49.24129136 -34.34775543 47.83647919 C-34.43679224 37.64927072 -34.16763656 28.22390773 -26.859375 20.4453125 C-21.36920816 16.17774584 -14.80791233 15.55286639 -8.10546875 16.3828125 C-6 17 -6 17 -1 20 C-0.67 13.4 -0.34 6.8 0 0 Z M-8 37 C-10.253498 42.63960737 -10.27839551 48.01628059 -10.23046875 54.02734375 C-10.23001053 54.97509171 -10.22955231 55.92283966 -10.2290802 56.89930725 C-10.22607135 58.89536803 -10.21822624 60.89142674 -10.20581055 62.88745117 C-10.18757863 65.92440214 -10.18530102 68.9610469 -10.18554688 71.99804688 C-10.18062966 73.94531511 -10.17480045 75.89258129 -10.16796875 77.83984375 C-10.16685593 78.73904037 -10.1657431 79.638237 -10.16459656 80.56468201 C-10.6053543 90.00833512 -10.6053543 90.00833512 -7 98 C-4.5 98.41666667 -4.5 98.41666667 -2 98 C0.22285743 94.66571386 0.25955996 93.56690127 0.29052734 89.67407227 C0.30328705 88.58606827 0.31604675 87.49806427 0.32919312 86.37709045 C0.33141876 85.20206467 0.33364441 84.02703888 0.3359375 82.81640625 C0.3425943 81.60935532 0.3492511 80.40230438 0.35610962 79.15867615 C0.36624199 76.60409064 0.37092646 74.04947863 0.37060547 71.49487305 C0.37497885 67.58142623 0.41129539 63.66910657 0.44921875 59.75585938 C0.45508662 57.27604553 0.45905621 54.79622632 0.4609375 52.31640625 C0.47530853 51.14340469 0.48967957 49.97040314 0.50448608 48.76185608 C0.49833282 47.67069992 0.49217957 46.57954376 0.48583984 45.45532227 C0.4901149 44.01661522 0.4901149 44.01661522 0.49447632 42.54884338 C-0.13908517 39.28306715 -1.46163468 38.07233061 -4 36 C-5.36893239 35.94729537 -5.36893239 35.94729537 -8 37 Z " fill="#000000" transform="translate(330,569)"/>
<path d="M0 0 C8.25 0 16.5 0 25 0 C25.33 7.59 25.66 15.18 26 23 C28.31 21.02 30.62 19.04 33 17 C38.64323219 15.56679817 43.61001834 15.649968 49 18 C54.3086364 21.33382366 57.06053276 24.96610192 59 31 C59.9724516 35.69151057 60.13714331 40.25249504 60.11352539 45.02490234 C60.11367142 45.80606415 60.11381744 46.58722595 60.1139679 47.39205933 C60.11327498 49.9567143 60.10551184 52.52129532 60.09765625 55.0859375 C60.09578986 56.87098145 60.094367 58.65602591 60.09336853 60.44107056 C60.08956075 65.12637765 60.07974538 69.81165346 60.06866455 74.49694824 C60.05841297 79.28311744 60.05386289 84.06929172 60.04882812 88.85546875 C60.03812149 98.23699508 60.02053884 107.61849004 60 117 C51.75 117 43.5 117 35 117 C34.970271 113.47143311 34.970271 113.47143311 34.93994141 109.87158203 C34.87313042 102.11222795 34.79548984 94.35300973 34.71247292 86.59381294 C34.66245857 81.88793021 34.61612917 77.18207049 34.578125 72.47607422 C34.54133687 67.93724907 34.49499496 63.39861412 34.44193649 58.85995102 C34.42335801 57.12558187 34.40826291 55.39117191 34.39665604 53.6567421 C34.37985235 51.23336423 34.35083252 48.81042527 34.31884766 46.38720703 C34.31668747 45.66503998 34.31452728 44.94287292 34.31230164 44.19882202 C34.35504111 40.15069195 34.35504111 40.15069195 32 37 C29.39719432 37.32041397 29.39719432 37.32041397 27 38 C25.83339635 41.49981095 25.82463624 44.67415346 25.79467773 48.31713867 C25.77982834 49.42970284 25.77982834 49.42970284 25.76467896 50.56474304 C25.73309743 53.01578583 25.70831979 55.466848 25.68359375 57.91796875 C25.66302133 59.61762495 25.64202478 61.31727607 25.62062073 63.016922 C25.5654298 67.49014163 25.51600738 71.96340721 25.46777344 76.43670654 C25.41753668 81.00146574 25.36186196 85.56615823 25.30664062 90.13085938 C25.19909546 99.08718471 25.09814491 108.04356672 25 117 C16.75 117 8.5 117 0 117 C0 78.39 0 39.78 0 0 Z " fill="#DA2E46" transform="translate(746,569)"/>
<path d="M0 0 C8.01928092 8.60893393 9.24284063 20.93691213 9.40625 32.2734375 C9.21875 35.4609375 9.21875 35.4609375 8.21875 36.4609375 C6.59617456 36.5601032 4.96935169 36.59173527 3.34375 36.59375 C2.35890625 36.59503906 1.3740625 36.59632813 0.359375 36.59765625 C-0.67703125 36.59378906 -1.7134375 36.58992187 -2.78125 36.5859375 C-4.33585937 36.59173828 -4.33585937 36.59173828 -5.921875 36.59765625 C-6.90671875 36.59636719 -7.8915625 36.59507812 -8.90625 36.59375 C-9.81632812 36.59262207 -10.72640625 36.59149414 -11.6640625 36.59033203 C-13.78125 36.4609375 -13.78125 36.4609375 -14.78125 35.4609375 C-14.99235519 32.97751949 -15.15719795 30.51137037 -15.28125 28.0234375 C-15.35832326 23.09179319 -15.35832326 23.09179319 -16.78125 18.4609375 C-18.76125 18.4609375 -20.74125 18.4609375 -22.78125 18.4609375 C-24.52499443 22.23967246 -25.03355918 25.19992204 -25.04003906 29.34936523 C-25.04634338 30.51084579 -25.05264771 31.67232635 -25.05914307 32.8690033 C-25.0550946 34.11492752 -25.05104614 35.36085175 -25.046875 36.64453125 C-25.04878845 37.93279312 -25.0507019 39.22105499 -25.05267334 40.5483551 C-25.05561577 43.27097386 -25.05135616 45.99346104 -25.04199219 48.71606445 C-25.03060941 52.1939084 -25.03715504 55.67144321 -25.04913712 59.14927578 C-25.05813245 62.48105189 -25.05182002 65.81274638 -25.046875 69.14453125 C-25.05092346 70.38843124 -25.05497192 71.63233124 -25.05914307 72.91392517 C-25.05283875 74.07855789 -25.04653442 75.24319061 -25.04003906 76.44311523 C-25.03844788 77.4628392 -25.03685669 78.48256317 -25.03521729 79.53318787 C-24.7555057 82.75771933 -23.91429415 85.43908226 -22.78125 88.4609375 C-20.78170254 88.50348106 -18.78083364 88.50174533 -16.78125 88.4609375 C-15.10477563 86.78446313 -15.43486923 84.63509214 -15.24609375 82.33203125 C-15.15908203 81.29755859 -15.07207031 80.26308594 -14.98242188 79.19726562 C-14.89541016 78.10865234 -14.80839844 77.02003906 -14.71875 75.8984375 C-14.62787109 74.80595703 -14.53699219 73.71347656 -14.44335938 72.58789062 C-14.21862189 69.87921258 -13.99810911 67.17025584 -13.78125 64.4609375 C-16.09125 64.4609375 -18.40125 64.4609375 -20.78125 64.4609375 C-20.78125 57.5309375 -20.78125 50.6009375 -20.78125 43.4609375 C-11.21125 43.4609375 -1.64125 43.4609375 8.21875 43.4609375 C8.21875 65.9009375 8.21875 88.3409375 8.21875 111.4609375 C4.91875 111.4609375 1.61875 111.4609375 -1.78125 111.4609375 C-2.77125 109.1509375 -3.76125 106.8409375 -4.78125 104.4609375 C-5.22855469 104.87085938 -5.67585938 105.28078125 -6.13671875 105.703125 C-12.27149761 111.17079571 -17.51597598 113.33998227 -25.78125 113.4609375 C-32.30924807 112.78340228 -37.5103498 110.87161976 -42.15234375 106.03125 C-49.72677451 96.63625873 -49.23204839 84.42003698 -49.1796875 72.98828125 C-49.1817139 71.41370001 -49.18463002 69.83911969 -49.18838501 68.26454163 C-49.19278049 64.98250291 -49.18646691 61.70071096 -49.17236328 58.41870117 C-49.15525869 54.23734142 -49.1651381 50.05655903 -49.18308067 45.8752203 C-49.19398206 42.62960044 -49.19044348 39.38411484 -49.1826973 36.13849068 C-49.18071353 34.59770194 -49.1830895 33.05690053 -49.19013596 31.51612663 C-49.22959825 20.46760196 -48.90469973 10.13564936 -41.6484375 1.21875 C-30.97220865 -8.83209306 -11.21959387 -9.69412277 0 0 Z " fill="#000000" transform="translate(147.78125,574.5390625)"/>
<path d="M0 0 C8.82776787 9.03121053 7.67828333 23.50776563 7.55078125 35.203125 C7.54584676 36.95334499 7.54255479 38.7035703 7.54081726 40.45379639 C7.53323559 44.09128124 7.51283971 47.72836431 7.48168945 51.36572266 C7.44176297 56.03650524 7.42401756 60.70703001 7.41438007 65.37796402 C7.40444445 69.84055265 7.38456707 74.30307819 7.36328125 78.765625 C7.3598855 79.6180201 7.35648975 80.47041519 7.3529911 81.34864044 C7.34147823 83.74194505 7.32297624 86.13508225 7.30200195 88.52832031 C7.29931305 89.2430098 7.29662415 89.95769928 7.29385376 90.69404602 C7.23992662 95.57257338 7.23992662 95.57257338 6.125 96.6875 C4.34428754 96.77476223 2.5601686 96.79449041 0.77734375 96.78515625 C-0.30224609 96.78193359 -1.38183594 96.77871094 -2.49414062 96.77539062 C-3.63044922 96.76701172 -4.76675781 96.75863281 -5.9375 96.75 C-7.07767578 96.74548828 -8.21785156 96.74097656 -9.39257812 96.73632812 C-12.22010351 96.72449747 -15.0475264 96.7080141 -17.875 96.6875 C-17.88086624 95.72949997 -17.88673248 94.77149994 -17.89277649 93.7844696 C-17.94994426 84.76424212 -18.02267442 75.7442571 -18.11071491 66.72427654 C-18.15547741 62.08679116 -18.1947204 57.44939483 -18.22143555 52.81176758 C-18.2474101 48.33770961 -18.28777054 43.86399325 -18.33818626 39.39014626 C-18.35489469 37.68173274 -18.36638415 35.97326009 -18.37261391 34.26477623 C-18.38221208 31.87496345 -18.41021826 29.48603248 -18.44262695 27.09643555 C-18.44119186 26.38721451 -18.43975677 25.67799347 -18.4382782 24.94728088 C-18.49576798 21.95767348 -18.53156084 20.12900678 -20.40202332 17.72444153 C-20.88810562 17.38225082 -21.37418793 17.04006012 -21.875 16.6875 C-23.855 17.6775 -23.855 17.6775 -25.875 18.6875 C-25.8904612 20.13116188 -25.8904612 20.13116188 -25.90623474 21.60398865 C-26.00380019 30.65417088 -26.10651783 39.70428177 -26.21433926 48.7543478 C-26.26961007 53.40757769 -26.32303658 58.06081381 -26.37231445 62.71411133 C-26.41989685 67.20100117 -26.47223717 71.68781212 -26.52794075 76.17460823 C-26.54839216 77.89028025 -26.56710053 79.60597393 -26.58407402 81.32168388 C-26.60805665 83.71640769 -26.63811912 86.11098102 -26.66967773 88.50561523 C-26.6754332 89.22202682 -26.68118866 89.93843842 -26.68711853 90.67655945 C-26.76094784 95.57344784 -26.76094784 95.57344784 -27.875 96.6875 C-29.65571246 96.77476223 -31.4398314 96.79449041 -33.22265625 96.78515625 C-34.30224609 96.78193359 -35.38183594 96.77871094 -36.49414062 96.77539062 C-37.63044922 96.76701172 -38.76675781 96.75863281 -39.9375 96.75 C-41.07767578 96.74548828 -42.21785156 96.74097656 -43.39257812 96.73632812 C-46.22010351 96.72449747 -49.0475264 96.7080141 -51.875 96.6875 C-51.8981211 83.79677745 -51.91591389 70.9060598 -51.92681217 58.01532078 C-51.93204151 52.03030734 -51.93914008 46.04530804 -51.95043945 40.06030273 C-51.96126653 34.28966571 -51.96727645 28.51904232 -51.96987724 22.74839592 C-51.97173182 20.54147057 -51.97535304 18.334546 -51.98073006 16.12762642 C-51.9879381 13.04803959 -51.98899104 9.96850986 -51.98852539 6.88891602 C-51.99212067 5.96678818 -51.99571594 5.04466034 -51.99942017 4.09458923 C-51.98905216 -2.19844784 -51.98905216 -2.19844784 -50.875 -3.3125 C-47.23600825 -3.56406269 -43.58416327 -3.49772226 -39.9375 -3.5 C-38.90947266 -3.51224609 -37.88144531 -3.52449219 -36.82226562 -3.53710938 C-35.34983398 -3.54000977 -35.34983398 -3.54000977 -33.84765625 -3.54296875 C-32.94281494 -3.54707764 -32.03797363 -3.55118652 -31.10571289 -3.55541992 C-28.875 -3.3125 -28.875 -3.3125 -26.875 -1.3125 C-26.25 0.8125 -26.25 0.8125 -25.875 2.6875 C-25.194375 1.90375 -24.51375 1.12 -23.8125 0.3125 C-16.82238643 -5.93398446 -7.4799134 -5.3129857 0 0 Z " fill="#000000" transform="translate(281.875,589.3125)"/>
<path d="M0 0 C4.68607551 3.923226 7.10076472 7.34687808 8.6875 13.25 C8.86189865 16.11311638 8.94114555 18.87399888 8.91455078 21.73388672 C8.91484283 22.56381638 8.91513489 23.39374603 8.91543579 24.24882507 C8.91404902 26.97588776 8.89851871 29.70267289 8.8828125 32.4296875 C8.87908005 34.32683157 8.87623417 36.22397758 8.87423706 38.12112427 C8.86661891 43.10239022 8.84698604 48.08353863 8.8248291 53.0647583 C8.80433148 58.15253103 8.79522698 63.24032284 8.78515625 68.328125 C8.76373841 78.30214315 8.72857109 88.27604339 8.6875 98.25 C0.7675 98.25 -7.1525 98.25 -15.3125 98.25 C-15.32708252 95.93315186 -15.34166504 93.61630371 -15.35668945 91.22924805 C-15.4069854 83.58162238 -15.4735714 75.93420141 -15.54821491 68.28677654 C-15.59297741 63.64929116 -15.6322204 59.01189483 -15.65893555 54.37426758 C-15.6849101 49.90020961 -15.72527054 45.42649325 -15.77568626 40.95264626 C-15.79239469 39.24423274 -15.80388415 37.53576009 -15.81011391 35.82727623 C-15.81971208 33.43746345 -15.84771826 31.04853248 -15.88012695 28.65893555 C-15.87869186 27.94971451 -15.87725677 27.24049347 -15.8757782 26.50978088 C-15.93326798 23.52017348 -15.96906084 21.69150678 -17.83952332 19.28694153 C-18.32560562 18.94475082 -18.81168793 18.60256012 -19.3125 18.25 C-21.3287233 18.96563266 -21.3287233 18.96563266 -23.3125 20.25 C-24.68498426 23.87057099 -24.47227623 27.67120369 -24.51782227 31.49707031 C-24.53267166 32.5805928 -24.53267166 32.5805928 -24.54782104 33.68600464 C-24.57933484 36.06667842 -24.6041533 38.44737213 -24.62890625 40.828125 C-24.64948453 42.48151154 -24.67048123 44.13489291 -24.69187927 45.78826904 C-24.74700974 50.13488583 -24.79645873 54.48154938 -24.84472656 58.82824707 C-24.89500757 63.2657486 -24.95065916 67.70318242 -25.00585938 72.140625 C-25.11333055 80.84369424 -25.21430349 89.54682117 -25.3125 98.25 C-33.2325 98.25 -41.1525 98.25 -49.3125 98.25 C-49.3125 65.25 -49.3125 32.25 -49.3125 -1.75 C-41.7225 -1.75 -34.1325 -1.75 -26.3125 -1.75 C-25.6525 0.56 -24.9925 2.87 -24.3125 5.25 C-23.57 4.1053125 -23.57 4.1053125 -22.8125 2.9375 C-16.5337493 -3.812157 -7.92905238 -4.18893333 0 0 Z " fill="#DA2E46" transform="translate(565.3125,587.75)"/>
<path d="M0 0 C7.50575028 7.67633551 8.79785725 17.69834141 8.9375 28.125 C8.70991425 35.02843437 8.2094591 41.92061356 7.75 48.8125 C-3.47 48.8125 -14.69 48.8125 -26.25 48.8125 C-26.105625 52.545625 -25.96125 56.27875 -25.8125 60.125 C-25.76939697 61.29844971 -25.72629395 62.47189941 -25.68188477 63.6809082 C-25.6247229 65.07055786 -25.6247229 65.07055786 -25.56640625 66.48828125 C-25.52974854 67.43614502 -25.49309082 68.38400879 -25.45532227 69.3605957 C-25.33569813 71.948671 -25.33569813 71.948671 -24.25 74.8125 C-22.3977633 75.81728037 -22.3977633 75.81728037 -20.25 75.8125 C-18.29541002 74.29670161 -17.37152687 73.34684769 -16.81762695 70.91137695 C-16.77835083 69.86663208 -16.77835083 69.86663208 -16.73828125 68.80078125 C-16.68861206 67.77658081 -16.68861206 67.77658081 -16.63793945 66.73168945 C-16.61304443 65.87148193 -16.58814941 65.01127441 -16.5625 64.125 C-16.459375 61.381875 -16.35625 58.63875 -16.25 55.8125 C-8.33 55.8125 -0.41 55.8125 7.75 55.8125 C9.42568209 65.86659252 8.37795304 76.77167909 3.234375 85.7578125 C-0.70115398 91.20541314 -4.78720447 93.99334274 -11.25 95.8125 C-21.68550016 97.47360657 -32.55895218 97.61056611 -41.53125 91.359375 C-48.63517469 84.96584278 -50.42568581 75.97263836 -51.25 66.8125 C-51.39483336 63.32639683 -51.41379585 59.8442922 -51.41796875 56.35546875 C-51.42129715 55.37185867 -51.42462555 54.3882486 -51.42805481 53.37483215 C-51.43309419 51.30319686 -51.43546406 49.23155353 -51.43530273 47.15991211 C-51.43748618 44.01988099 -51.45566574 40.88020337 -51.47460938 37.74023438 C-51.47754468 35.71614702 -51.47952856 33.69205802 -51.48046875 31.66796875 C-51.48765427 30.74364548 -51.49483978 29.8193222 -51.50224304 28.86698914 C-51.46808353 18.93764079 -50.89629342 9.64556648 -43.71484375 2.2265625 C-31.96406099 -8.74797265 -13.03634634 -8.77446388 0 0 Z M-24.98828125 15.265625 C-26.8475435 19.01868688 -26.57087076 22.43826565 -26.4375 26.5625 C-26.42396484 27.35527344 -26.41042969 28.14804687 -26.39648438 28.96484375 C-26.36125223 30.91435564 -26.30744821 32.86351626 -26.25 34.8125 C-22.95 34.8125 -19.65 34.8125 -16.25 34.8125 C-16.16867813 32.24935501 -16.10935825 29.68881582 -16.0625 27.125 C-16.03736328 26.40376953 -16.01222656 25.68253906 -15.98632812 24.93945312 C-15.92426833 20.40908785 -16.20507878 17.28165743 -19.25 13.8125 C-23.11612181 13.38491951 -23.11612181 13.38491951 -24.98828125 15.265625 Z " fill="#000000" transform="translate(413.25,591.1875)"/>
<path d="M0 0 C6.45923017 6.60603085 7.91211298 13.64916556 7.84765625 22.640625 C7.84664917 23.30497559 7.84564209 23.96932617 7.84460449 24.65380859 C7.83939262 27.12339008 7.82543139 29.59294687 7.8125 32.0625 C7.791875 37.59 7.77125 43.1175 7.75 48.8125 C-3.47 48.8125 -14.69 48.8125 -26.25 48.8125 C-26.146875 52.710625 -26.04375 56.60875 -25.9375 60.625 C-25.91260498 61.85065674 -25.88770996 63.07631348 -25.86206055 64.33911133 C-25.82894775 65.3061499 -25.79583496 66.27318848 -25.76171875 67.26953125 C-25.73553467 68.25928955 -25.70935059 69.24904785 -25.68237305 70.26879883 C-25.19204828 73.15343675 -24.61196713 74.12774779 -22.25 75.8125 C-20.11196946 75.73643164 -20.11196946 75.73643164 -18.25 74.8125 C-16.60187352 71.51624704 -16.86750669 67.81791525 -16.6875 64.1875 C-16.543125 61.42375 -16.39875 58.66 -16.25 55.8125 C-8.33 55.8125 -0.41 55.8125 7.75 55.8125 C8.17214656 80.93022036 8.17214656 80.93022036 -0.69921875 90.3515625 C-7.3670871 96.33689314 -15.67563446 96.71348885 -24.25 96.8125 C-31.43601418 96.30854576 -37.80092457 94.71666789 -43.25 89.8125 C-51.14707953 80.22318915 -51.40378226 68.21633604 -51.41796875 56.35546875 C-51.42129715 55.37185867 -51.42462555 54.3882486 -51.42805481 53.37483215 C-51.43309419 51.30319686 -51.43546406 49.23155353 -51.43530273 47.15991211 C-51.43748618 44.01988099 -51.45566574 40.88020337 -51.47460938 37.74023438 C-51.47754468 35.71614702 -51.47952856 33.69205802 -51.48046875 31.66796875 C-51.48765427 30.74364548 -51.49483978 29.8193222 -51.50224304 28.86698914 C-51.46808353 18.93764079 -50.89629342 9.64556648 -43.71484375 2.2265625 C-31.96406099 -8.74797265 -13.03634634 -8.77446388 0 0 Z M-24.98828125 15.265625 C-26.8475435 19.01868688 -26.57087076 22.43826565 -26.4375 26.5625 C-26.42396484 27.35527344 -26.41042969 28.14804687 -26.39648438 28.96484375 C-26.36125223 30.91435564 -26.30744821 32.86351626 -26.25 34.8125 C-22.95 34.8125 -19.65 34.8125 -16.25 34.8125 C-16.16867813 32.24935501 -16.10935825 29.68881582 -16.0625 27.125 C-16.03736328 26.40376953 -16.01222656 25.68253906 -15.98632812 24.93945312 C-15.92426833 20.40908785 -16.20507878 17.28165743 -19.25 13.8125 C-23.11612181 13.38491951 -23.11612181 13.38491951 -24.98828125 15.265625 Z " fill="#000000" transform="translate(214.25,591.1875)"/>
<path d="M0 0 C7.77373376 7.95040953 7.75 15.7065377 7.75 26.8125 C-0.5 26.8125 -8.75 26.8125 -17.25 26.8125 C-17.745 22.3575 -17.745 22.3575 -18.25 17.8125 C-19.24 16.8225 -20.23 15.8325 -21.25 14.8125 C-23.23 15.8025 -23.23 15.8025 -25.25 16.8125 C-24.86832107 22.28323135 -23.26109441 24.19379526 -19.25 27.8125 C-17.03120386 29.49538461 -14.73976295 31.05914902 -12.4375 32.625 C-2.45334192 39.63252276 5.19988983 46.59287091 8.5625 58.75 C8.6553125 60.2659375 8.6553125 60.2659375 8.75 61.8125 C8.80027344 62.62332031 8.85054687 63.43414063 8.90234375 64.26953125 C9.21298969 73.15400524 7.72590345 81.23069921 2.1328125 88.34765625 C-4.15344545 95.00682781 -12.15028147 96.23731799 -20.8671875 96.7734375 C-29.40052226 96.87197485 -36.5639546 95.27857977 -43.25 89.8125 C-51.31254314 81.53205029 -51.35803162 71.3866193 -51.3828125 60.5078125 C-51.25 57.8125 -51.25 57.8125 -50.25 56.8125 C-48.46928754 56.72523777 -46.6851686 56.70550959 -44.90234375 56.71484375 C-43.82275391 56.71806641 -42.74316406 56.72128906 -41.63085938 56.72460938 C-39.92639648 56.73717773 -39.92639648 56.73717773 -38.1875 56.75 C-36.47723633 56.75676758 -36.47723633 56.75676758 -34.73242188 56.76367188 C-31.90492582 56.7755024 -29.07745655 56.7934385 -26.25 56.8125 C-25.92 62.7525 -25.59 68.6925 -25.25 74.8125 C-23.27 74.8125 -21.29 74.8125 -19.25 74.8125 C-17.61890633 73.18140633 -18.00127717 71.37062778 -17.9375 69.125 C-17.90011719 68.27550781 -17.86273437 67.42601562 -17.82421875 66.55078125 C-18.85849223 59.89916922 -23.79432425 56.25372603 -28.875 52.5 C-30.12673589 51.54001964 -31.37672343 50.57775552 -32.625 49.61328125 C-33.23859375 49.14100098 -33.8521875 48.6687207 -34.484375 48.18212891 C-48.56819837 37.25703915 -48.56819837 37.25703915 -50.25 28.8125 C-51.07843685 21.21207359 -51.89381848 12.06212339 -47.640625 5.3828125 C-35.73909011 -8.05656117 -14.67484904 -9.87730224 0 0 Z " fill="#DA2D45" transform="translate(631.25,591.1875)"/>
<path d="M0 0 C6.76086898 7.364518 6.88271046 16.16522825 7.375 25.6171875 C-1.205 25.6171875 -9.785 25.6171875 -18.625 25.6171875 C-19.12 21.1621875 -19.12 21.1621875 -19.625 16.6171875 C-20.615 15.6271875 -21.605 14.6371875 -22.625 13.6171875 C-25.69865696 14.24890272 -25.69865696 14.24890272 -26.5 16.3671875 C-26.68102352 19.62561085 -25.50929131 20.96752425 -23.625 23.6171875 C-21.58885206 25.34972378 -19.59431413 26.93124995 -17.4375 28.4921875 C-16.26423983 29.36924382 -15.09236173 30.24815201 -13.921875 31.12890625 C-13.07206055 31.76578369 -13.07206055 31.76578369 -12.20507812 32.41552734 C-3.2384798 39.23468633 5.52554368 46.99670972 7.375 58.6171875 C7.97185976 68.76380337 8.14134745 78.07661519 1.6875 86.4296875 C-4.2673574 92.73483063 -12.11786204 95.09719129 -20.625 95.6171875 C-30.01371102 95.3383149 -38.55670516 94.42549908 -45.625 87.6171875 C-51.46438898 80.57997514 -51.9216361 73.42933152 -51.75 64.6796875 C-51.70875 61.6890625 -51.6675 58.6984375 -51.625 55.6171875 C-43.705 55.6171875 -35.785 55.6171875 -27.625 55.6171875 C-27.25 62.9296875 -27.25 62.9296875 -27.14697266 65.2199707 C-26.93338282 68.82828584 -26.67131029 70.54772207 -24.625 73.6171875 C-21.54134129 73.8674032 -21.54134129 73.8674032 -18.625 73.6171875 C-18.33296906 68.06859956 -18.37391671 63.35268824 -21.625 58.6171875 C-25.32453187 54.6693649 -29.56461365 51.39114176 -33.89453125 48.16796875 C-49.87932374 36.26581271 -49.87932374 36.26581271 -51.625 25.6171875 C-52.25806824 16.63912887 -52.3344412 9.02841487 -46.3125 1.8671875 C-33.35598917 -8.98012389 -13.60802508 -11.57990596 0 0 Z " fill="#DA2D45" transform="translate(904.625,592.3828125)"/>
<path d="M0 0 C0.98484375 -0.00128906 1.9696875 -0.00257813 2.984375 -0.00390625 C4.02078125 -0.00003906 5.0571875 0.00382813 6.125 0.0078125 C7.67960938 0.00201172 7.67960938 0.00201172 9.265625 -0.00390625 C10.25046875 -0.00261719 11.2353125 -0.00132812 12.25 0 C13.16007813 0.00112793 14.07015625 0.00225586 15.0078125 0.00341797 C17.125 0.1328125 17.125 0.1328125 18.125 1.1328125 C18.21169432 2.6215311 18.23203494 4.1142575 18.22265625 5.60546875 C18.21943359 6.50458984 18.21621094 7.40371094 18.21289062 8.33007812 C18.20451172 9.27560547 18.19613281 10.22113281 18.1875 11.1953125 C18.18298828 12.14470703 18.17847656 13.09410156 18.17382812 14.07226562 C18.1620011 16.42584315 18.14552025 18.77929727 18.125 21.1328125 C20.105 21.1328125 22.085 21.1328125 24.125 21.1328125 C24.125 27.7328125 24.125 34.3328125 24.125 41.1328125 C22.145 41.1328125 20.165 41.1328125 18.125 41.1328125 C18.125 60.2728125 18.125 79.4128125 18.125 99.1328125 C20.105 99.1328125 22.085 99.1328125 24.125 99.1328125 C24.125 105.0728125 24.125 111.0128125 24.125 117.1328125 C15.53773888 119.02870132 7.54824733 120.16653025 -0.875 117.0078125 C-4.46554801 113.64167374 -5.72783061 109.51383189 -6.23576355 104.74745178 C-6.22910172 103.57274826 -6.22243988 102.39804474 -6.21557617 101.18774414 C-6.21601425 100.53323273 -6.21645233 99.87872131 -6.21690369 99.20437622 C-6.21483374 97.06692397 -6.19159013 94.93028189 -6.16796875 92.79296875 C-6.16236636 91.30082121 -6.1580993 89.80866811 -6.15510559 88.31651306 C-6.14370733 84.40868622 -6.11428423 80.50119933 -6.08099365 76.59350586 C-6.05018381 72.5981913 -6.03657704 68.60282126 -6.02148438 64.60742188 C-5.98940898 56.7823979 -5.93827442 48.95765302 -5.875 41.1328125 C-8.185 41.1328125 -10.495 41.1328125 -12.875 41.1328125 C-12.90388514 37.98699827 -12.92175923 34.84121781 -12.9375 31.6953125 C-12.94587891 30.79748047 -12.95425781 29.89964844 -12.96289062 28.97460938 C-12.96611328 28.12060547 -12.96933594 27.26660156 -12.97265625 26.38671875 C-12.98051147 25.20057983 -12.98051147 25.20057983 -12.98852539 23.99047852 C-12.875 22.1328125 -12.875 22.1328125 -11.875 21.1328125 C-9.87541636 21.09200467 -7.87454746 21.09026894 -5.875 21.1328125 C-5.88023682 20.53218994 -5.88547363 19.93156738 -5.89086914 19.31274414 C-5.91158014 16.60694412 -5.92464125 13.90116073 -5.9375 11.1953125 C-5.94587891 10.24978516 -5.95425781 9.30425781 -5.96289062 8.33007812 C-5.96611328 7.43095703 -5.96933594 6.53183594 -5.97265625 5.60546875 C-5.97789307 4.77281494 -5.98312988 3.94016113 -5.98852539 3.08227539 C-5.76156426 -0.81511083 -3.33246081 0.00413017 0 0 Z " fill="#DA2E46" transform="translate(823.875,568.8671875)"/>
<path d="M0 0 C0 6.93 0 13.86 0 21 C-3.25520833 21.48828125 -6.51041667 21.9765625 -9.765625 22.46484375 C-13.14788904 22.97965624 -13.14788904 22.97965624 -17 24 C-17 49.08 -17 74.16 -17 100 C-25.25 100 -33.5 100 -42 100 C-42.02254897 87.10927433 -42.04091389 74.21856166 -42.05181217 61.32782078 C-42.05704151 55.34280734 -42.06414008 49.35780804 -42.07543945 43.37280273 C-42.08626653 37.60216571 -42.09227645 31.83154232 -42.09487724 26.06089592 C-42.09673182 23.85397057 -42.10035304 21.647046 -42.10573006 19.44012642 C-42.1129381 16.36053959 -42.11399104 13.28100986 -42.11352539 10.20141602 C-42.11712067 9.27928818 -42.12071594 8.35716034 -42.12442017 7.40708923 C-42.11405216 1.11405216 -42.11405216 1.11405216 -41 0 C-39.29227642 -0.08713831 -37.58101351 -0.10700007 -35.87109375 -0.09765625 C-34.31938477 -0.09282227 -34.31938477 -0.09282227 -32.73632812 -0.08789062 C-31.64771484 -0.07951172 -30.55910156 -0.07113281 -29.4375 -0.0625 C-27.7987793 -0.05573242 -27.7987793 -0.05573242 -26.12695312 -0.04882812 C-23.41791505 -0.03699826 -20.70898401 -0.02051543 -18 0 C-17.34 1.98 -16.68 3.96 -16 6 C-14.700625 4.824375 -14.700625 4.824375 -13.375 3.625 C-8.9892119 -0.01603163 -5.66271606 -1.41567901 0 0 Z " fill="#000000" transform="translate(470,586)"/>
<path d="M0 0 C7.26 0 14.52 0 22 0 C23 1 23 1 23.12304783 2.93466282 C23.12166514 4.21641596 23.12166514 4.21641596 23.12025452 5.52406311 C23.12162918 6.50147964 23.12300385 7.47889618 23.12442017 8.4859314 C23.12082489 9.56702179 23.11722961 10.64811218 23.11352539 11.76196289 C23.11367142 12.8935231 23.11381744 14.02508331 23.1139679 15.19093323 C23.11326819 18.95152671 23.10547311 22.71207137 23.09765625 26.47265625 C23.09579227 29.07197543 23.09436828 31.67129497 23.09336853 34.27061462 C23.08993341 40.42588577 23.08204256 46.5811366 23.07201904 52.73640007 C23.06085694 59.74233346 23.05534721 66.74826767 23.05032361 73.75420773 C23.03985992 88.16948289 23.02151482 102.5847372 23 117 C15.41 117 7.82 117 0 117 C0 78.39 0 39.78 0 0 Z " fill="#DA2E46" transform="translate(485,569)"/>
<path d="M0 0 C7.59 0 15.18 0 23 0 C23 33 23 66 23 100 C15.08 100 7.16 100 -1 100 C-1.02254897 87.10927433 -1.04091389 74.21856166 -1.05181217 61.32782078 C-1.05704151 55.34280734 -1.06414008 49.35780804 -1.07543945 43.37280273 C-1.08626653 37.60216571 -1.09227645 31.83154232 -1.09487724 26.06089592 C-1.09673182 23.85397057 -1.10035304 21.647046 -1.10573006 19.44012642 C-1.1129381 16.36053959 -1.11399104 13.28100986 -1.11352539 10.20141602 C-1.11712067 9.27928818 -1.12071594 8.35716034 -1.12442017 7.40708923 C-1.11405216 1.11405216 -1.11405216 1.11405216 0 0 Z " fill="#DA2E46" transform="translate(647,586)"/>
<path d="M0 0 C7.92 0 15.84 0 24 0 C24 5.94 24 11.88 24 18 C16.08 18 8.16 18 0 18 C0 12.06 0 6.12 0 0 Z " fill="#D92D46" transform="translate(646,564)"/>
</svg>
